<?xml version="1.0" encoding="utf-8"?>
<!-- Generator: Adobe Illustrator 24.0.1, SVG Export Plug-In . SVG Version: 6.00 Build 0)  -->
<svg version="1.1" id="Layer_1" xmlns="http://www.w3.org/2000/svg" xmlns:xlink="http://www.w3.org/1999/xlink" x="0px" y="0px"
	 viewBox="0 0 20 20" style="enable-background:new 0 0 20 20;" xml:space="preserve">
<style type="text/css">
	.st0{fill:#FFFFFF;}
</style>
<g>
	<g>
		<path class="st0" d="M10,19.9L10,19.9L10,19.9c-0.1,0-0.1,0-0.2,0c0,0,0,0,0,0l0,0c0,0,0,0,0,0l-8.6-3.7l0-11.7c0,0,0,0,0,0
			c0-0.1,0-0.1,0-0.2c0-0.1,0-0.1,0-0.2c0-0.1,0.1-0.1,0.1-0.1c0,0,0,0,0,0l0,0c0,0,0.1-0.1,0.1-0.1v0c0,0,0,0,0,0c0,0,0.1,0,0.1,0
			L10,0.1l8.4,3.7c0,0,0.1,0,0.1,0c0,0,0,0,0,0l0,0c0,0,0,0,0,0c0,0,0,0,0,0c0,0,0,0,0,0l0,0c0,0,0,0,0,0v0c0,0,0,0,0,0l0,0
			c0,0,0,0,0,0c0,0,0,0,0,0l0,0c0,0,0,0,0,0c0,0,0,0,0,0c0,0,0,0,0,0l0,0c0,0,0,0,0,0l0,0c0,0,0,0,0,0c0,0,0,0,0,0v0c0,0,0,0,0,0v0
			c0,0,0,0,0,0l0,0c0,0,0,0,0,0c0,0.1,0.1,0.1,0.1,0.2c0,0,0,0.1,0,0.1c0,0,0,0,0,0v11.9l-8.6,3.7C10.1,19.9,10.1,19.9,10,19.9z
			 M10.5,8.7l0,9.7c0,0,0,0.1,0,0.1l7.2-3.1V5.1L10.5,8.7z M2.3,15.4l7.1,3.1c0,0,0,0,0-0.1l0-9.7L2.3,5.2L2.3,15.4z M3.1,4.3
			L10,7.8l6.9-3.5l-6.9-3L3.1,4.3z"/>
	</g>
</g>
</svg>
