<?xml version="1.0" encoding="utf-8"?>
<!-- Generator: Adobe Illustrator 24.0.1, SVG Export Plug-In . SVG Version: 6.00 Build 0)  -->
<svg version="1.1" id="Layer_1" xmlns="http://www.w3.org/2000/svg" xmlns:xlink="http://www.w3.org/1999/xlink" x="0px" y="0px"
	 viewBox="0 0 20 20" style="enable-background:new 0 0 20 20;" xml:space="preserve">
<style type="text/css">
	.st0{fill:none;stroke:#FFFFFF;stroke-width:0.6927;stroke-linecap:square;}
</style>
<g>
	<path class="st0" d="M18.3,5.8V2.4h-3.8 M18.3,5.8h-3.8 M18.3,5.8V9 M1.7,5.8V2.4h4.2 M1.7,5.8h4.2 M1.7,5.8V9 M10.3,5.8h4.2
		 M10.3,5.8H5.8 M10.3,5.8V9 M10.3,19h4.2 M10.3,19H5.8 M10.3,19v-3.5 M14.5,5.8V9 M14.5,19h2.4c0.8,0,1.4-0.6,1.4-1.4v-2.1
		 M14.5,19v-3.5 M5.8,5.8V9 M5.8,19H3.1c-0.8,0-1.4-0.6-1.4-1.4v-2.1 M5.8,19v-3.5 M18.3,12.4V9 M18.3,12.4v3.1 M18.3,12.4h-3.8
		 M1.7,12.4V9 M1.7,12.4v3.1 M1.7,12.4h4.2 M1.7,9h4.2 M18.3,9h-3.8 M18.3,15.5h-3.8 M1.7,15.5h4.2 M14.5,3.8V2.4 M14.5,2.4V1
		 M14.5,2.4H5.8 M5.8,2.4V1 M5.8,2.4v1.4 M14.5,9v3.5 M14.5,9h-4.2 M14.5,12.4v3.1 M14.5,12.4h-4.2 M14.5,15.5h-4.2 M10.3,15.5v-3.1
		 M10.3,15.5H5.8 M10.3,12.4V9 M10.3,12.4H5.8 M10.3,9H5.8 M5.8,9v3.5 M5.8,12.4v3.1"/>
</g>
</svg>
