<?xml version="1.0" encoding="utf-8"?>
<!-- Generator: Adobe Illustrator 24.0.1, SVG Export Plug-In . SVG Version: 6.00 Build 0)  -->
<svg version="1.1" id="Layer_1" xmlns="http://www.w3.org/2000/svg" xmlns:xlink="http://www.w3.org/1999/xlink" x="0px" y="0px"
	 viewBox="0 0 20 20" style="enable-background:new 0 0 20 20;" xml:space="preserve">
<style type="text/css">
	.st0{fill:#DADADA;}
	.st1{fill:none;stroke:#FFFFFF;stroke-width:0.6295;stroke-linecap:square;}
</style>
<g>
	<path class="st0" d="M10,5.2C9.8,5.2,10.4,5.2,10,5.2L10,5.2z"/>
	<path class="st0" d="M10,5.2C10.2,5.2,9.6,5.2,10,5.2L10,5.2z"/>
	<path class="st1" d="M2.8,12.1v6.9H10 M2.8,12.1V5.2H10 M2.8,12.1H10 M17.2,12.1V5.2H10 M17.2,12.1v6.9H10 M17.2,12.1H10 M10,5.2
		c0.6-2.8,2.7-5.4,4.2-3.8C15.8,3,11.8,5.1,10,5.2z M10,5.2C9.8,5.2,10.4,5.2,10,5.2z M10,5.2v6.9 M10,5.2C9.4,2.4,7.3-0.1,5.8,1.4
		C4.2,3,8.2,5.1,10,5.2z M10,5.2C10.2,5.2,9.6,5.2,10,5.2z M10,19.1v-6.9"/>
</g>
</svg>
